<mxfile host="Electron" modified="2023-11-15T15:29:31.418Z" agent="Mozilla/5.0 (Windows NT 10.0; Win64; x64) AppleWebKit/537.36 (KHTML, like Gecko) draw.io/22.0.2 Chrome/114.0.5735.289 Electron/25.8.4 Safari/537.36" etag="oPF27W0ByrL4RiVMl9S0" version="22.0.2" type="device">
  <diagram name="Page-1" id="BhB-hEoeP_Yzxlgl3xib">
    <mxGraphModel dx="1036" dy="1706" grid="1" gridSize="10" guides="1" tooltips="1" connect="1" arrows="1" fold="1" page="1" pageScale="1" pageWidth="850" pageHeight="1100" math="0" shadow="0">
      <root>
        <mxCell id="0" />
        <mxCell id="1" parent="0" />
        <mxCell id="47GIOMThR4z07SBP2G1q-1" value="Admin" style="shape=umlActor;verticalLabelPosition=bottom;verticalAlign=top;html=1;outlineConnect=0;" parent="1" vertex="1">
          <mxGeometry x="90" y="-10" width="30" height="60" as="geometry" />
        </mxCell>
        <mxCell id="47GIOMThR4z07SBP2G1q-5" value="User" style="shape=umlActor;verticalLabelPosition=bottom;verticalAlign=top;html=1;outlineConnect=0;" parent="1" vertex="1">
          <mxGeometry x="90" y="170" width="30" height="60" as="geometry" />
        </mxCell>
        <mxCell id="47GIOMThR4z07SBP2G1q-6" value="CRM System" style="shape=umlActor;verticalLabelPosition=bottom;verticalAlign=top;html=1;outlineConnect=0;" parent="1" vertex="1">
          <mxGeometry x="780" y="200" width="30" height="60" as="geometry" />
        </mxCell>
        <mxCell id="47GIOMThR4z07SBP2G1q-15" value="" style="endArrow=none;html=1;rounded=0;exitX=0.938;exitY=0.856;exitDx=0;exitDy=0;exitPerimeter=0;" parent="1" source="47GIOMThR4z07SBP2G1q-14" edge="1">
          <mxGeometry width="50" height="50" relative="1" as="geometry">
            <mxPoint x="400" y="300" as="sourcePoint" />
            <mxPoint x="760" y="220" as="targetPoint" />
          </mxGeometry>
        </mxCell>
        <mxCell id="D7iBX-Xfe5lmwznPaFMK-30" value="" style="endArrow=none;html=1;rounded=0;entryX=0.981;entryY=0.674;entryDx=0;entryDy=0;entryPerimeter=0;" parent="1" target="47GIOMThR4z07SBP2G1q-4" edge="1">
          <mxGeometry width="50" height="50" relative="1" as="geometry">
            <mxPoint x="760" y="220" as="sourcePoint" />
            <mxPoint x="430" y="380" as="targetPoint" />
          </mxGeometry>
        </mxCell>
        <mxCell id="xV5SVKu7XudcPo9lz0pT-2" value="" style="swimlane;startSize=0;" parent="1" vertex="1">
          <mxGeometry x="170" y="-160" width="520" height="1160" as="geometry" />
        </mxCell>
        <mxCell id="47GIOMThR4z07SBP2G1q-4" value="Login" style="ellipse;whiteSpace=wrap;html=1;" parent="xV5SVKu7XudcPo9lz0pT-2" vertex="1">
          <mxGeometry x="215" y="130" width="100" height="60" as="geometry" />
        </mxCell>
        <mxCell id="47GIOMThR4z07SBP2G1q-14" value="Change Password" style="ellipse;whiteSpace=wrap;html=1;" parent="xV5SVKu7XudcPo9lz0pT-2" vertex="1">
          <mxGeometry x="240" y="260" width="110" height="50" as="geometry" />
        </mxCell>
        <mxCell id="47GIOMThR4z07SBP2G1q-21" value="" style="endArrow=none;html=1;rounded=0;exitX=0.658;exitY=1.001;exitDx=0;exitDy=0;exitPerimeter=0;entryX=0.246;entryY=0.088;entryDx=0;entryDy=0;entryPerimeter=0;" parent="xV5SVKu7XudcPo9lz0pT-2" source="47GIOMThR4z07SBP2G1q-4" target="47GIOMThR4z07SBP2G1q-14" edge="1">
          <mxGeometry width="50" height="50" relative="1" as="geometry">
            <mxPoint x="120" y="320" as="sourcePoint" />
            <mxPoint x="170" y="270" as="targetPoint" />
          </mxGeometry>
        </mxCell>
        <mxCell id="47GIOMThR4z07SBP2G1q-9" value="Administration" style="ellipse;whiteSpace=wrap;html=1;" parent="xV5SVKu7XudcPo9lz0pT-2" vertex="1">
          <mxGeometry x="225" y="370" width="90" height="50" as="geometry" />
        </mxCell>
        <mxCell id="47GIOMThR4z07SBP2G1q-2" value="" style="endArrow=none;html=1;rounded=0;exitX=0.002;exitY=0.42;exitDx=0;exitDy=0;exitPerimeter=0;entryX=0.023;entryY=0.674;entryDx=0;entryDy=0;entryPerimeter=0;" parent="xV5SVKu7XudcPo9lz0pT-2" source="47GIOMThR4z07SBP2G1q-9" target="47GIOMThR4z07SBP2G1q-4" edge="1">
          <mxGeometry width="50" height="50" relative="1" as="geometry">
            <mxPoint x="150" y="290" as="sourcePoint" />
            <mxPoint x="150" y="170" as="targetPoint" />
            <Array as="points">
              <mxPoint x="-40" y="170" />
            </Array>
          </mxGeometry>
        </mxCell>
        <mxCell id="47GIOMThR4z07SBP2G1q-13" value="Update / Delete Existing Employees" style="ellipse;whiteSpace=wrap;html=1;" parent="xV5SVKu7XudcPo9lz0pT-2" vertex="1">
          <mxGeometry x="400" y="460" width="120" height="60" as="geometry" />
        </mxCell>
        <mxCell id="47GIOMThR4z07SBP2G1q-10" value="" style="endArrow=none;html=1;rounded=0;entryX=0;entryY=0;entryDx=0;entryDy=0;exitX=1;exitY=1;exitDx=0;exitDy=0;" parent="xV5SVKu7XudcPo9lz0pT-2" source="47GIOMThR4z07SBP2G1q-9" target="47GIOMThR4z07SBP2G1q-13" edge="1">
          <mxGeometry width="50" height="50" relative="1" as="geometry">
            <mxPoint x="90" y="250" as="sourcePoint" />
            <mxPoint x="370" y="250" as="targetPoint" />
            <Array as="points" />
          </mxGeometry>
        </mxCell>
        <mxCell id="47GIOMThR4z07SBP2G1q-12" value="Add New Employees&amp;nbsp;" style="ellipse;whiteSpace=wrap;html=1;" parent="xV5SVKu7XudcPo9lz0pT-2" vertex="1">
          <mxGeometry x="230" y="460" width="90" height="50" as="geometry" />
        </mxCell>
        <mxCell id="47GIOMThR4z07SBP2G1q-18" value="" style="endArrow=none;html=1;rounded=0;exitX=0.5;exitY=0;exitDx=0;exitDy=0;entryX=0.578;entryY=0.992;entryDx=0;entryDy=0;entryPerimeter=0;" parent="xV5SVKu7XudcPo9lz0pT-2" source="47GIOMThR4z07SBP2G1q-12" target="47GIOMThR4z07SBP2G1q-9" edge="1">
          <mxGeometry width="50" height="50" relative="1" as="geometry">
            <mxPoint x="230" y="390" as="sourcePoint" />
            <mxPoint x="250" y="360" as="targetPoint" />
          </mxGeometry>
        </mxCell>
        <mxCell id="47GIOMThR4z07SBP2G1q-11" value="Manage User Access" style="ellipse;whiteSpace=wrap;html=1;" parent="xV5SVKu7XudcPo9lz0pT-2" vertex="1">
          <mxGeometry x="20" y="480" width="90" height="60" as="geometry" />
        </mxCell>
        <mxCell id="47GIOMThR4z07SBP2G1q-19" value="" style="endArrow=none;html=1;rounded=0;exitX=0.778;exitY=0;exitDx=0;exitDy=0;exitPerimeter=0;entryX=0.225;entryY=0.977;entryDx=0;entryDy=0;entryPerimeter=0;" parent="xV5SVKu7XudcPo9lz0pT-2" source="47GIOMThR4z07SBP2G1q-11" target="47GIOMThR4z07SBP2G1q-9" edge="1">
          <mxGeometry width="50" height="50" relative="1" as="geometry">
            <mxPoint x="150" y="490" as="sourcePoint" />
            <mxPoint x="385" y="499" as="targetPoint" />
            <Array as="points" />
          </mxGeometry>
        </mxCell>
        <mxCell id="47GIOMThR4z07SBP2G1q-23" value="CRM" style="ellipse;whiteSpace=wrap;html=1;" parent="xV5SVKu7XudcPo9lz0pT-2" vertex="1">
          <mxGeometry x="205" y="530" width="110" height="60" as="geometry" />
        </mxCell>
        <mxCell id="47GIOMThR4z07SBP2G1q-3" value="" style="endArrow=none;html=1;rounded=0;exitX=0.418;exitY=0.978;exitDx=0;exitDy=0;exitPerimeter=0;entryX=0.027;entryY=0.381;entryDx=0;entryDy=0;entryPerimeter=0;" parent="xV5SVKu7XudcPo9lz0pT-2" source="47GIOMThR4z07SBP2G1q-4" target="47GIOMThR4z07SBP2G1q-23" edge="1">
          <mxGeometry width="50" height="50" relative="1" as="geometry">
            <mxPoint x="180" y="430" as="sourcePoint" />
            <mxPoint x="220" y="590" as="targetPoint" />
            <Array as="points">
              <mxPoint x="-30" y="350" />
            </Array>
          </mxGeometry>
        </mxCell>
        <mxCell id="D7iBX-Xfe5lmwznPaFMK-12" value="Customer" style="ellipse;whiteSpace=wrap;html=1;" parent="xV5SVKu7XudcPo9lz0pT-2" vertex="1">
          <mxGeometry x="410" y="650" width="100" height="50" as="geometry" />
        </mxCell>
        <mxCell id="D7iBX-Xfe5lmwznPaFMK-16" value="" style="endArrow=none;html=1;rounded=0;entryX=1;entryY=1;entryDx=0;entryDy=0;exitX=0.25;exitY=0.104;exitDx=0;exitDy=0;exitPerimeter=0;" parent="xV5SVKu7XudcPo9lz0pT-2" source="D7iBX-Xfe5lmwznPaFMK-12" target="47GIOMThR4z07SBP2G1q-23" edge="1">
          <mxGeometry width="50" height="50" relative="1" as="geometry">
            <mxPoint x="260" y="780" as="sourcePoint" />
            <mxPoint x="310" y="730" as="targetPoint" />
          </mxGeometry>
        </mxCell>
        <mxCell id="D7iBX-Xfe5lmwznPaFMK-11" value="Quote" style="ellipse;whiteSpace=wrap;html=1;" parent="xV5SVKu7XudcPo9lz0pT-2" vertex="1">
          <mxGeometry x="330" y="710" width="100" height="50" as="geometry" />
        </mxCell>
        <mxCell id="D7iBX-Xfe5lmwznPaFMK-15" value="" style="endArrow=none;html=1;rounded=0;entryX=0.5;entryY=1;entryDx=0;entryDy=0;exitX=0;exitY=0;exitDx=0;exitDy=0;" parent="xV5SVKu7XudcPo9lz0pT-2" source="D7iBX-Xfe5lmwznPaFMK-11" target="47GIOMThR4z07SBP2G1q-23" edge="1">
          <mxGeometry width="50" height="50" relative="1" as="geometry">
            <mxPoint x="250" y="770" as="sourcePoint" />
            <mxPoint x="300" y="720" as="targetPoint" />
          </mxGeometry>
        </mxCell>
        <mxCell id="D7iBX-Xfe5lmwznPaFMK-2" value="Marketing Campaign" style="ellipse;whiteSpace=wrap;html=1;" parent="xV5SVKu7XudcPo9lz0pT-2" vertex="1">
          <mxGeometry x="215" y="770" width="100" height="50" as="geometry" />
        </mxCell>
        <mxCell id="D7iBX-Xfe5lmwznPaFMK-17" value="" style="endArrow=none;html=1;rounded=0;entryX=0.5;entryY=1;entryDx=0;entryDy=0;exitX=0.5;exitY=0;exitDx=0;exitDy=0;" parent="xV5SVKu7XudcPo9lz0pT-2" source="D7iBX-Xfe5lmwznPaFMK-2" target="47GIOMThR4z07SBP2G1q-23" edge="1">
          <mxGeometry width="50" height="50" relative="1" as="geometry">
            <mxPoint x="270" y="790" as="sourcePoint" />
            <mxPoint x="320" y="740" as="targetPoint" />
          </mxGeometry>
        </mxCell>
        <mxCell id="D7iBX-Xfe5lmwznPaFMK-10" value="Invoice" style="ellipse;whiteSpace=wrap;html=1;" parent="xV5SVKu7XudcPo9lz0pT-2" vertex="1">
          <mxGeometry x="120" y="710" width="100" height="50" as="geometry" />
        </mxCell>
        <mxCell id="D7iBX-Xfe5lmwznPaFMK-14" value="" style="endArrow=none;html=1;rounded=0;entryX=0.426;entryY=1.038;entryDx=0;entryDy=0;entryPerimeter=0;exitX=0.411;exitY=0.032;exitDx=0;exitDy=0;exitPerimeter=0;" parent="xV5SVKu7XudcPo9lz0pT-2" source="D7iBX-Xfe5lmwznPaFMK-10" target="47GIOMThR4z07SBP2G1q-23" edge="1">
          <mxGeometry width="50" height="50" relative="1" as="geometry">
            <mxPoint x="240" y="760" as="sourcePoint" />
            <mxPoint x="290" y="710" as="targetPoint" />
          </mxGeometry>
        </mxCell>
        <mxCell id="D7iBX-Xfe5lmwznPaFMK-9" value="Lead" style="ellipse;whiteSpace=wrap;html=1;" parent="xV5SVKu7XudcPo9lz0pT-2" vertex="1">
          <mxGeometry x="30" y="680" width="100" height="50" as="geometry" />
        </mxCell>
        <mxCell id="D7iBX-Xfe5lmwznPaFMK-13" value="" style="endArrow=none;html=1;rounded=0;entryX=0.307;entryY=1.02;entryDx=0;entryDy=0;entryPerimeter=0;exitX=0.6;exitY=0;exitDx=0;exitDy=0;exitPerimeter=0;" parent="xV5SVKu7XudcPo9lz0pT-2" source="D7iBX-Xfe5lmwznPaFMK-9" target="47GIOMThR4z07SBP2G1q-23" edge="1">
          <mxGeometry width="50" height="50" relative="1" as="geometry">
            <mxPoint x="230" y="750" as="sourcePoint" />
            <mxPoint x="280" y="700" as="targetPoint" />
          </mxGeometry>
        </mxCell>
        <mxCell id="D7iBX-Xfe5lmwznPaFMK-21" value="Download Initiated Campaign List&amp;nbsp;" style="ellipse;whiteSpace=wrap;html=1;" parent="xV5SVKu7XudcPo9lz0pT-2" vertex="1">
          <mxGeometry x="350" y="860" width="125" height="70" as="geometry" />
        </mxCell>
        <mxCell id="D7iBX-Xfe5lmwznPaFMK-25" value="" style="endArrow=none;html=1;rounded=0;entryX=0.398;entryY=1.042;entryDx=0;entryDy=0;entryPerimeter=0;exitX=0.5;exitY=0;exitDx=0;exitDy=0;" parent="xV5SVKu7XudcPo9lz0pT-2" source="D7iBX-Xfe5lmwznPaFMK-21" target="D7iBX-Xfe5lmwznPaFMK-2" edge="1">
          <mxGeometry width="50" height="50" relative="1" as="geometry">
            <mxPoint x="30" y="670" as="sourcePoint" />
            <mxPoint x="189" y="611" as="targetPoint" />
          </mxGeometry>
        </mxCell>
        <mxCell id="D7iBX-Xfe5lmwznPaFMK-22" value="View / List Campaigns" style="ellipse;whiteSpace=wrap;html=1;" parent="xV5SVKu7XudcPo9lz0pT-2" vertex="1">
          <mxGeometry x="60" y="870" width="100" height="50" as="geometry" />
        </mxCell>
        <mxCell id="D7iBX-Xfe5lmwznPaFMK-26" value="" style="endArrow=none;html=1;rounded=0;entryX=0.351;entryY=1.099;entryDx=0;entryDy=0;entryPerimeter=0;exitX=0.5;exitY=0;exitDx=0;exitDy=0;" parent="xV5SVKu7XudcPo9lz0pT-2" source="D7iBX-Xfe5lmwznPaFMK-22" target="D7iBX-Xfe5lmwznPaFMK-2" edge="1">
          <mxGeometry width="50" height="50" relative="1" as="geometry">
            <mxPoint x="40" y="680" as="sourcePoint" />
            <mxPoint x="199" y="621" as="targetPoint" />
          </mxGeometry>
        </mxCell>
        <mxCell id="D7iBX-Xfe5lmwznPaFMK-23" value="Add New Campaign" style="ellipse;whiteSpace=wrap;html=1;" parent="xV5SVKu7XudcPo9lz0pT-2" vertex="1">
          <mxGeometry x="205" y="910" width="100" height="50" as="geometry" />
        </mxCell>
        <mxCell id="xV5SVKu7XudcPo9lz0pT-5" value="&lt;font style=&quot;font-size: 18px;&quot;&gt;&lt;b&gt;CRM SYSTEM&lt;/b&gt;&lt;/font&gt;" style="text;html=1;strokeColor=none;fillColor=none;align=center;verticalAlign=middle;whiteSpace=wrap;rounded=0;" parent="xV5SVKu7XudcPo9lz0pT-2" vertex="1">
          <mxGeometry x="120" y="30" width="260" height="30" as="geometry" />
        </mxCell>
        <mxCell id="PVKErnwCxlJxxTO6dsBT-4" value="" style="endArrow=none;html=1;rounded=0;" edge="1" parent="xV5SVKu7XudcPo9lz0pT-2" source="PVKErnwCxlJxxTO6dsBT-6">
          <mxGeometry width="50" height="50" relative="1" as="geometry">
            <mxPoint x="255" y="1030" as="sourcePoint" />
            <mxPoint x="255" y="960" as="targetPoint" />
          </mxGeometry>
        </mxCell>
        <mxCell id="PVKErnwCxlJxxTO6dsBT-8" value="Referral" style="ellipse;whiteSpace=wrap;html=1;" vertex="1" parent="xV5SVKu7XudcPo9lz0pT-2">
          <mxGeometry x="370" y="1050" width="100" height="50" as="geometry" />
        </mxCell>
        <mxCell id="PVKErnwCxlJxxTO6dsBT-7" value="Servey &amp;amp; Feedback" style="ellipse;whiteSpace=wrap;html=1;" vertex="1" parent="xV5SVKu7XudcPo9lz0pT-2">
          <mxGeometry x="270" y="1070" width="100" height="50" as="geometry" />
        </mxCell>
        <mxCell id="PVKErnwCxlJxxTO6dsBT-6" value="Seasonal Promotions" style="ellipse;whiteSpace=wrap;html=1;" vertex="1" parent="xV5SVKu7XudcPo9lz0pT-2">
          <mxGeometry x="130" y="1070" width="100" height="50" as="geometry" />
        </mxCell>
        <mxCell id="PVKErnwCxlJxxTO6dsBT-5" value="Email Newsletter" style="ellipse;whiteSpace=wrap;html=1;" vertex="1" parent="xV5SVKu7XudcPo9lz0pT-2">
          <mxGeometry x="40" y="1000" width="100" height="50" as="geometry" />
        </mxCell>
        <mxCell id="PVKErnwCxlJxxTO6dsBT-12" value="" style="endArrow=none;html=1;rounded=0;entryX=0.5;entryY=1;entryDx=0;entryDy=0;exitX=0;exitY=0;exitDx=0;exitDy=0;" edge="1" parent="xV5SVKu7XudcPo9lz0pT-2" source="PVKErnwCxlJxxTO6dsBT-8" target="D7iBX-Xfe5lmwznPaFMK-23">
          <mxGeometry width="50" height="50" relative="1" as="geometry">
            <mxPoint x="295" y="1070" as="sourcePoint" />
            <mxPoint x="295" y="1000" as="targetPoint" />
          </mxGeometry>
        </mxCell>
        <mxCell id="PVKErnwCxlJxxTO6dsBT-10" value="" style="endArrow=none;html=1;rounded=0;exitX=1;exitY=0.5;exitDx=0;exitDy=0;entryX=0.434;entryY=1.06;entryDx=0;entryDy=0;entryPerimeter=0;" edge="1" parent="xV5SVKu7XudcPo9lz0pT-2" source="PVKErnwCxlJxxTO6dsBT-5" target="D7iBX-Xfe5lmwznPaFMK-23">
          <mxGeometry width="50" height="50" relative="1" as="geometry">
            <mxPoint x="275" y="1050" as="sourcePoint" />
            <mxPoint x="275" y="980" as="targetPoint" />
          </mxGeometry>
        </mxCell>
        <mxCell id="PVKErnwCxlJxxTO6dsBT-11" value="" style="endArrow=none;html=1;rounded=0;exitX=0.5;exitY=0;exitDx=0;exitDy=0;entryX=0.5;entryY=1;entryDx=0;entryDy=0;" edge="1" parent="xV5SVKu7XudcPo9lz0pT-2" source="PVKErnwCxlJxxTO6dsBT-7" target="D7iBX-Xfe5lmwznPaFMK-23">
          <mxGeometry width="50" height="50" relative="1" as="geometry">
            <mxPoint x="285" y="1060" as="sourcePoint" />
            <mxPoint x="285" y="990" as="targetPoint" />
          </mxGeometry>
        </mxCell>
        <mxCell id="PVKErnwCxlJxxTO6dsBT-3" value="" style="endArrow=none;html=1;rounded=0;entryX=0.414;entryY=1.092;entryDx=0;entryDy=0;entryPerimeter=0;exitX=0.5;exitY=0;exitDx=0;exitDy=0;" edge="1" parent="xV5SVKu7XudcPo9lz0pT-2" source="D7iBX-Xfe5lmwznPaFMK-23" target="D7iBX-Xfe5lmwznPaFMK-2">
          <mxGeometry width="50" height="50" relative="1" as="geometry">
            <mxPoint x="260" y="900" as="sourcePoint" />
            <mxPoint x="260" y="830" as="targetPoint" />
          </mxGeometry>
        </mxCell>
      </root>
    </mxGraphModel>
  </diagram>
</mxfile>
